<?xml version="1.0" encoding="UTF-8" standalone="no" ?>
<!DOCTYPE svg PUBLIC "-//W3C//DTD SVG 1.1//EN" "http://www.w3.org/Graphics/SVG/1.1/DTD/svg11.dtd">
<svg xmlns="http://www.w3.org/2000/svg" xmlns:xlink="http://www.w3.org/1999/xlink" version="1.1" width="477.5109375" height="391.99" xml:space="preserve">
<desc>Created with Fabric.js 1.6.0-rc.1</desc>
<defs></defs>
<g style="stroke: none; stroke-width: 1; stroke-dasharray: none; stroke-linecap: butt; stroke-linejoin: miter; stroke-miterlimit: 10; fill: none; fill-rule: nonzero; opacity: 1;" transform="translate(10 10) scale(0.23 0.23)" >
  <path d="M 120.404 438.886 l -47.289 -47.283 c -6.53 -6.53 -17.109 -6.53 -23.639 0 l -23.639 23.639 c -9.479 9.474 -14.692 22.066 -14.692 35.463 c 0 13.397 5.213 25.989 14.693 35.458 c 9.468 9.474 22.072 14.693 35.458 14.693 c 13.397 0 26 -5.219 35.458 -14.688 l 23.65 -23.639 C 126.933 455.999 126.933 445.415 120.404 438.886 z" style="stroke: none; stroke-width: 1; stroke-dasharray: none; stroke-linecap: butt; stroke-linejoin: miter; stroke-miterlimit: 10; fill: #736056; fill-rule: nonzero; opacity: 1;" transform=" matrix(1 0 0 1 0 0) " stroke-linecap="round" />
  <path d="M 96.758 415.242 l -70.92 70.92 c 9.468 9.474 22.072 14.693 35.458 14.693 c 13.397 0 26 -5.219 35.458 -14.688 l 23.65 -23.639 c 6.53 -6.53 6.53 -17.114 0 -23.644 L 96.758 415.242 z" style="stroke: none; stroke-width: 1; stroke-dasharray: none; stroke-linecap: butt; stroke-linejoin: miter; stroke-miterlimit: 10; fill: #5a5f66; fill-rule: nonzero; opacity: 1;" transform=" matrix(1 0 0 1 0 0) " stroke-linecap="round" />
  <path d="M 167.007 512 c -13.387 0 -25.989 -5.219 -35.458 -14.693 L 14.694 380.452 c -9.48 -9.468 -14.693 -22.061 -14.693 -35.458 c 0 -13.397 5.213 -25.989 14.693 -35.463 s 22.071 -14.688 35.458 -14.688 c 13.397 0 25.989 5.213 35.458 14.688 l 116.856 116.855 c 9.48 9.474 14.693 22.066 14.693 35.463 c 0 13.393 -5.213 25.984 -14.682 35.453 l 0 0 C 193.008 506.781 180.404 512 167.007 512 z" style="stroke: none; stroke-width: 1; stroke-dasharray: none; stroke-linecap: butt; stroke-linejoin: miter; stroke-miterlimit: 10; fill: #34a93d; fill-rule: nonzero; opacity: 1;" transform=" matrix(1 0 0 1 0 0) " stroke-linecap="round" />
  <path d="M 144.04 367.96 l -70.92 70.92 l 58.428 58.428 c 9.468 9.474 22.072 14.693 35.458 14.693 c 13.397 0 26 -5.219 35.469 -14.698 c 9.468 -9.468 14.682 -22.061 14.682 -35.453 c 0 -13.397 -5.213 -25.989 -14.693 -35.463 L 144.04 367.96 z" style="stroke: none; stroke-width: 1; stroke-dasharray: none; stroke-linecap: butt; stroke-linejoin: miter; stroke-miterlimit: 10; fill: #34a93d; fill-rule: nonzero; opacity: 1;" transform=" matrix(1 0 0 1 0 0) " stroke-linecap="round" />
  <path d="M 486.163 25.838 c -9.468 -9.474 -22.071 -14.693 -35.458 -14.693 c -13.397 0 -26 5.219 -35.458 14.688 l -23.65 23.639 c -6.53 6.53 -6.53 17.114 0 23.644 l 47.289 47.283 c 3.265 3.265 7.543 4.898 11.819 4.898 c 4.276 0 8.555 -1.633 11.819 -4.898 l 23.639 -23.639 c 9.48 -9.474 14.693 -22.066 14.693 -35.463 S 495.642 35.306 486.163 25.838 z" style="stroke: none; stroke-width: 1; stroke-dasharray: none; stroke-linecap: butt; stroke-linejoin: miter; stroke-miterlimit: 10; fill: #736056; fill-rule: nonzero; opacity: 1;" transform=" matrix(1 0 0 1 0 0) " stroke-linecap="round" />
  <path d="M 415.243 96.758 l 23.643 23.64 c 3.265 3.265 7.543 4.898 11.819 4.898 c 4.276 0 8.555 -1.633 11.819 -4.898 l 23.639 -23.639 c 9.48 -9.474 14.693 -22.066 14.693 -35.463 s -5.213 -25.989 -14.693 -35.458 L 415.243 96.758 z" style="stroke: none; stroke-width: 1; stroke-dasharray: none; stroke-linecap: butt; stroke-linejoin: miter; stroke-miterlimit: 10; fill: #5a5f66; fill-rule: nonzero; opacity: 1;" transform=" matrix(1 0 0 1 0 0) " stroke-linecap="round" />
  <path d="M 461.85 217.158 c -13.397 0 -25.989 -5.213 -35.458 -14.688 L 309.536 85.614 c -9.48 -9.474 -14.693 -22.066 -14.693 -35.463 s 5.213 -25.989 14.693 -35.463 C 318.993 5.219 331.597 0 344.995 0 c 13.387 0 25.989 5.219 35.458 14.693 l 116.855 116.855 c 9.48 9.468 14.693 22.061 14.693 35.458 s -5.213 25.989 -14.693 35.463 v 0.006 C 487.829 211.944 475.237 217.158 461.85 217.158 z M 485.489 190.65 h 0.109 H 485.489 z" style="stroke: none; stroke-width: 1; stroke-dasharray: none; stroke-linecap: butt; stroke-linejoin: miter; stroke-miterlimit: 10; fill: #34a93d; fill-rule: nonzero; opacity: 1;" transform=" matrix(1 0 0 1 0 0) " stroke-linecap="round" />
  <path d="M 438.881 73.12 l -70.919 70.919 l 58.43 58.43 c 9.468 9.474 22.061 14.688 35.458 14.688 c 13.387 0 25.979 -5.213 35.458 -14.682 v -0.006 c 9.48 -9.474 14.693 -22.066 14.693 -35.463 s -5.213 -25.989 -14.693 -35.458 L 438.881 73.12 z" style="stroke: none; stroke-width: 1; stroke-dasharray: none; stroke-linecap: butt; stroke-linejoin: miter; stroke-miterlimit: 10; fill: #34a93d; fill-rule: nonzero; opacity: 1;" transform=" matrix(1 0 0 1 0 0) " stroke-linecap="round" />
  <polygon points="210.58,372.35 372.3,210.62 301.4,139.67 139.66,301.42 " style="stroke: none; stroke-width: 1; stroke-dasharray: none; stroke-linecap: butt; stroke-linejoin: miter; stroke-miterlimit: 10; fill: #736056; fill-rule: nonzero; opacity: 1;" transform="  matrix(1 0 0 1 0 0) "/>
  <polygon points="175.12,336.88 210.58,372.35 372.3,210.62 336.85,175.15 " style="stroke: none; stroke-width: 1; stroke-dasharray: none; stroke-linecap: butt; stroke-linejoin: miter; stroke-miterlimit: 10; fill: #5a5f66; fill-rule: nonzero; opacity: 1;" transform="  matrix(1 0 0 1 0 0) "/>
  <path d="M 438.211 288.058 c -12.853 0 -25.696 -4.887 -35.469 -14.66 L 238.609 109.253 c -9.48 -9.468 -14.693 -22.061 -14.693 -35.458 s 5.213 -25.989 14.693 -35.463 c 9.48 -9.474 22.072 -14.688 35.458 -14.688 c 13.397 0 25.989 5.213 35.458 14.688 L 473.669 202.47 c 9.48 9.468 14.693 22.061 14.693 35.458 c 0 13.403 -5.213 25.995 -14.693 35.469 C 463.896 283.171 451.054 288.058 438.211 288.058 z" style="stroke: none; stroke-width: 1; stroke-dasharray: none; stroke-linecap: butt; stroke-linejoin: miter; stroke-miterlimit: 10; fill: #46d139; fill-rule: nonzero; opacity: 1;" transform=" matrix(1 0 0 1 0 0) " stroke-linecap="round" />
  <path d="M 391.598 120.402 l -70.923 70.923 l 82.067 82.072 c 9.774 9.774 22.616 14.66 35.469 14.66 c 12.842 0 25.685 -4.887 35.458 -14.66 c 9.48 -9.474 14.693 -22.066 14.693 -35.469 c 0 -13.397 -5.213 -25.989 -14.693 -35.458 L 391.598 120.402 z" style="stroke: none; stroke-width: 1; stroke-dasharray: none; stroke-linecap: butt; stroke-linejoin: miter; stroke-miterlimit: 10; fill: #46d138; fill-rule: nonzero; opacity: 1;" transform=" matrix(1 0 0 1 0 0) " stroke-linecap="round" />
  <path d="M 237.934 488.356 c -13.397 0 -25.989 -5.213 -35.458 -14.688 L 38.333 309.53 c -9.48 -9.468 -14.693 -22.061 -14.693 -35.458 c 0 -13.403 5.213 -25.995 14.693 -35.469 c 19.558 -19.558 51.391 -19.535 70.928 0 l 164.133 164.144 c 9.48 9.468 14.693 22.061 14.693 35.458 c 0 13.397 -5.213 25.989 -14.693 35.463 v 0.006 C 263.913 483.143 251.321 488.356 237.934 488.356 z M 261.573 461.849 h 0.109 H 261.573 z" style="stroke: none; stroke-width: 1; stroke-dasharray: none; stroke-linecap: butt; stroke-linejoin: miter; stroke-miterlimit: 10; fill: #46d139; fill-rule: nonzero; opacity: 1;" transform=" matrix(1 0 0 1 0 0) " stroke-linecap="round" />
  <path d="M 191.326 320.675 l -70.923 70.923 l 82.074 82.07 c 9.468 9.474 22.061 14.688 35.458 14.688 c 13.387 0 25.979 -5.213 35.458 -14.682 v -0.006 c 9.48 -9.474 14.693 -22.066 14.693 -35.463 c 0 -13.397 -5.213 -25.989 -14.693 -35.458 L 191.326 320.675 z" style="stroke: none; stroke-width: 1; stroke-dasharray: none; stroke-linecap: butt; stroke-linejoin: miter; stroke-miterlimit: 10; fill: #46d138; fill-rule: nonzero; opacity: 1;" transform=" matrix(1 0 0 1 0 0) " stroke-linecap="round" />
</g>
  <g transform="translate(214.52 66.98) scale(1.11 1.11)">
   <text font-family="ADAMCG PRO" font-size="40" font-weight="normal" style="stroke: none; stroke-width: 1; stroke-dasharray: none; stroke-linecap: butt; stroke-linejoin: miter; stroke-miterlimit: 10; fill: #000000; fill-rule: nonzero; opacity: 1;" ><tspan x="-58.53" y="8.98" style="stroke: none; stroke-width: 0; stroke-dasharray: none; stroke-linecap: butt; stroke-linejoin: miter; stroke-miterlimit: 4; fill: #000000; fill-rule: ; opacity: 1;">F</tspan><tspan x="-35.22" y="8.98" style="stroke: none; stroke-width: 0; stroke-dasharray: none; stroke-linecap: butt; stroke-linejoin: miter; stroke-miterlimit: 4; fill: #000000; fill-rule: ; opacity: 1;">i</tspan><tspan x="-24.44" y="8.98" style="stroke: none; stroke-width: 0; stroke-dasharray: none; stroke-linecap: butt; stroke-linejoin: miter; stroke-miterlimit: 4; fill: #000000; fill-rule: ; opacity: 1;">t</tspan><tspan x="-1.08" y="8.98" style="stroke: none; stroke-width: 0; stroke-dasharray: none; stroke-linecap: butt; stroke-linejoin: miter; stroke-miterlimit: 4; fill: #000000; fill-rule: ; opacity: 1;">i</tspan><tspan x="9.7" y="8.98" style="stroke: none; stroke-width: 0; stroke-dasharray: none; stroke-linecap: butt; stroke-linejoin: miter; stroke-miterlimit: 4; fill: #000000; fill-rule: ; opacity: 1;">f</tspan><tspan x="31.01" y="8.98" style="stroke: none; stroke-width: 0; stroke-dasharray: none; stroke-linecap: butt; stroke-linejoin: miter; stroke-miterlimit: 4; fill: #000000; fill-rule: ; opacity: 1;">y</tspan></text>
 </g>
  <g transform="translate(308.54 93.29) scale(0.56 0.56)">
   <text font-family="ADAMCG PRO" font-size="40" font-weight="normal" style="stroke: none; stroke-width: 1; stroke-dasharray: none; stroke-linecap: butt; stroke-linejoin: miter; stroke-miterlimit: 10; fill: #000000; fill-rule: nonzero; opacity: 1;" ><tspan x="-284.38" y="8.98" style="stroke: none; stroke-width: 0; stroke-dasharray: none; stroke-linecap: butt; stroke-linejoin: miter; stroke-miterlimit: 4; fill: #000000; fill-rule: ; opacity: 1;">Y</tspan><tspan x="-256.87" y="8.98" style="stroke: none; stroke-width: 0; stroke-dasharray: none; stroke-linecap: butt; stroke-linejoin: miter; stroke-miterlimit: 4; fill: #000000; fill-rule: ; opacity: 1;">o</tspan><tspan x="-222.92" y="8.98" style="stroke: none; stroke-width: 0; stroke-dasharray: none; stroke-linecap: butt; stroke-linejoin: miter; stroke-miterlimit: 4; fill: #000000; fill-rule: ; opacity: 1;">u</tspan><tspan x="-195.28" y="8.98" style="stroke: none; stroke-width: 0; stroke-dasharray: none; stroke-linecap: butt; stroke-linejoin: miter; stroke-miterlimit: 4; fill: #000000; fill-rule: ; opacity: 1;">r</tspan><tspan x="-169.66" y="8.98" style="stroke: none; stroke-width: 0; stroke-dasharray: none; stroke-linecap: butt; stroke-linejoin: miter; stroke-miterlimit: 4; fill: #000000; fill-rule: ; opacity: 1;"> </tspan><tspan x="-157.67" y="8.98" style="stroke: none; stroke-width: 0; stroke-dasharray: none; stroke-linecap: butt; stroke-linejoin: miter; stroke-miterlimit: 4; fill: #000000; fill-rule: ; opacity: 1;">n</tspan><tspan x="-128.15" y="8.98" style="stroke: none; stroke-width: 0; stroke-dasharray: none; stroke-linecap: butt; stroke-linejoin: miter; stroke-miterlimit: 4; fill: #000000; fill-rule: ; opacity: 1;">e</tspan><tspan x="-104.89" y="8.98" style="stroke: none; stroke-width: 0; stroke-dasharray: none; stroke-linecap: butt; stroke-linejoin: miter; stroke-miterlimit: 4; fill: #000000; fill-rule: ; opacity: 1;">x</tspan><tspan x="-72.86" y="8.98" style="stroke: none; stroke-width: 0; stroke-dasharray: none; stroke-linecap: butt; stroke-linejoin: miter; stroke-miterlimit: 4; fill: #000000; fill-rule: ; opacity: 1;">t</tspan><tspan x="-49.5" y="8.98" style="stroke: none; stroke-width: 0; stroke-dasharray: none; stroke-linecap: butt; stroke-linejoin: miter; stroke-miterlimit: 4; fill: #000000; fill-rule: ; opacity: 1;"> </tspan><tspan x="-37.51" y="8.98" style="stroke: none; stroke-width: 0; stroke-dasharray: none; stroke-linecap: butt; stroke-linejoin: miter; stroke-miterlimit: 4; fill: #000000; fill-rule: ; opacity: 1;">s</tspan><tspan x="-16.4" y="8.98" style="stroke: none; stroke-width: 0; stroke-dasharray: none; stroke-linecap: butt; stroke-linejoin: miter; stroke-miterlimit: 4; fill: #000000; fill-rule: ; opacity: 1;">t</tspan><tspan x="6.96" y="8.98" style="stroke: none; stroke-width: 0; stroke-dasharray: none; stroke-linecap: butt; stroke-linejoin: miter; stroke-miterlimit: 4; fill: #000000; fill-rule: ; opacity: 1;">e</tspan><tspan x="30.22" y="8.98" style="stroke: none; stroke-width: 0; stroke-dasharray: none; stroke-linecap: butt; stroke-linejoin: miter; stroke-miterlimit: 4; fill: #000000; fill-rule: ; opacity: 1;">p</tspan><tspan x="52.65" y="8.98" style="stroke: none; stroke-width: 0; stroke-dasharray: none; stroke-linecap: butt; stroke-linejoin: miter; stroke-miterlimit: 4; fill: #000000; fill-rule: ; opacity: 1;"> </tspan><tspan x="64.64" y="8.98" style="stroke: none; stroke-width: 0; stroke-dasharray: none; stroke-linecap: butt; stroke-linejoin: miter; stroke-miterlimit: 4; fill: #000000; fill-rule: ; opacity: 1;">t</tspan><tspan x="88" y="8.98" style="stroke: none; stroke-width: 0; stroke-dasharray: none; stroke-linecap: butt; stroke-linejoin: miter; stroke-miterlimit: 4; fill: #000000; fill-rule: ; opacity: 1;">o</tspan><tspan x="121.94" y="8.98" style="stroke: none; stroke-width: 0; stroke-dasharray: none; stroke-linecap: butt; stroke-linejoin: miter; stroke-miterlimit: 4; fill: #000000; fill-rule: ; opacity: 1;"> </tspan><tspan x="133.94" y="8.98" style="stroke: none; stroke-width: 0; stroke-dasharray: none; stroke-linecap: butt; stroke-linejoin: miter; stroke-miterlimit: 4; fill: #000000; fill-rule: ; opacity: 1;">f</tspan><tspan x="155.24" y="8.98" style="stroke: none; stroke-width: 0; stroke-dasharray: none; stroke-linecap: butt; stroke-linejoin: miter; stroke-miterlimit: 4; fill: #000000; fill-rule: ; opacity: 1;">i</tspan><tspan x="166.03" y="8.98" style="stroke: none; stroke-width: 0; stroke-dasharray: none; stroke-linecap: butt; stroke-linejoin: miter; stroke-miterlimit: 4; fill: #000000; fill-rule: ; opacity: 1;">t</tspan><tspan x="189.38" y="8.98" style="stroke: none; stroke-width: 0; stroke-dasharray: none; stroke-linecap: butt; stroke-linejoin: miter; stroke-miterlimit: 4; fill: #000000; fill-rule: ; opacity: 1;">n</tspan><tspan x="218.9" y="8.98" style="stroke: none; stroke-width: 0; stroke-dasharray: none; stroke-linecap: butt; stroke-linejoin: miter; stroke-miterlimit: 4; fill: #000000; fill-rule: ; opacity: 1;">e</tspan><tspan x="242.16" y="8.98" style="stroke: none; stroke-width: 0; stroke-dasharray: none; stroke-linecap: butt; stroke-linejoin: miter; stroke-miterlimit: 4; fill: #000000; fill-rule: ; opacity: 1;">s</tspan><tspan x="263.27" y="8.98" style="stroke: none; stroke-width: 0; stroke-dasharray: none; stroke-linecap: butt; stroke-linejoin: miter; stroke-miterlimit: 4; fill: #000000; fill-rule: ; opacity: 1;">s</tspan></text>
 </g>
  <g transform="translate(295.31 62.19) scale(1.29 1.29)">
   <text font-family="Grand Hotel" font-size="40" font-weight="normal" style="stroke: none; stroke-width: 1; stroke-dasharray: none; stroke-linecap: butt; stroke-linejoin: miter; stroke-miterlimit: 10; fill: #2da33b; fill-rule: nonzero; opacity: 1;" ><tspan x="-16.8" y="8.98" style="stroke: none; stroke-width: 0; stroke-dasharray: none; stroke-linecap: butt; stroke-linejoin: miter; stroke-miterlimit: 4; fill: #2da33b; fill-rule: ; opacity: 1;">m</tspan><tspan x="4.92" y="8.98" style="stroke: none; stroke-width: 0; stroke-dasharray: none; stroke-linecap: butt; stroke-linejoin: miter; stroke-miterlimit: 4; fill: #2da33b; fill-rule: ; opacity: 1;">e</tspan></text>
 </g>
<g style="stroke: none; stroke-width: 1; stroke-dasharray: none; stroke-linecap: butt; stroke-linejoin: miter; stroke-miterlimit: 10; fill: none; fill-rule: nonzero; opacity: 1;" transform="translate(10 264) scale(0.23 0.23)" >
  <path d="M 120.404 438.886 l -47.289 -47.283 c -6.53 -6.53 -17.109 -6.53 -23.639 0 l -23.639 23.639 c -9.479 9.474 -14.692 22.066 -14.692 35.463 c 0 13.397 5.213 25.989 14.693 35.458 c 9.468 9.474 22.072 14.693 35.458 14.693 c 13.397 0 26 -5.219 35.458 -14.688 l 23.65 -23.639 C 126.933 455.999 126.933 445.415 120.404 438.886 z" style="stroke: none; stroke-width: 1; stroke-dasharray: none; stroke-linecap: butt; stroke-linejoin: miter; stroke-miterlimit: 10; fill: #736056; fill-rule: nonzero; opacity: 1;" transform=" matrix(1 0 0 1 0 0) " stroke-linecap="round" />
  <path d="M 96.758 415.242 l -70.92 70.92 c 9.468 9.474 22.072 14.693 35.458 14.693 c 13.397 0 26 -5.219 35.458 -14.688 l 23.65 -23.639 c 6.53 -6.53 6.53 -17.114 0 -23.644 L 96.758 415.242 z" style="stroke: none; stroke-width: 1; stroke-dasharray: none; stroke-linecap: butt; stroke-linejoin: miter; stroke-miterlimit: 10; fill: #5a5f66; fill-rule: nonzero; opacity: 1;" transform=" matrix(1 0 0 1 0 0) " stroke-linecap="round" />
  <path d="M 167.007 512 c -13.387 0 -25.989 -5.219 -35.458 -14.693 L 14.694 380.452 c -9.48 -9.468 -14.693 -22.061 -14.693 -35.458 c 0 -13.397 5.213 -25.989 14.693 -35.463 s 22.071 -14.688 35.458 -14.688 c 13.397 0 25.989 5.213 35.458 14.688 l 116.856 116.855 c 9.48 9.474 14.693 22.066 14.693 35.463 c 0 13.393 -5.213 25.984 -14.682 35.453 l 0 0 C 193.008 506.781 180.404 512 167.007 512 z" style="stroke: none; stroke-width: 1; stroke-dasharray: none; stroke-linecap: butt; stroke-linejoin: miter; stroke-miterlimit: 10; fill: #34a93d; fill-rule: nonzero; opacity: 1;" transform=" matrix(1 0 0 1 0 0) " stroke-linecap="round" />
  <path d="M 144.04 367.96 l -70.92 70.92 l 58.428 58.428 c 9.468 9.474 22.072 14.693 35.458 14.693 c 13.397 0 26 -5.219 35.469 -14.698 c 9.468 -9.468 14.682 -22.061 14.682 -35.453 c 0 -13.397 -5.213 -25.989 -14.693 -35.463 L 144.04 367.96 z" style="stroke: none; stroke-width: 1; stroke-dasharray: none; stroke-linecap: butt; stroke-linejoin: miter; stroke-miterlimit: 10; fill: #34a93d; fill-rule: nonzero; opacity: 1;" transform=" matrix(1 0 0 1 0 0) " stroke-linecap="round" />
  <path d="M 486.163 25.838 c -9.468 -9.474 -22.071 -14.693 -35.458 -14.693 c -13.397 0 -26 5.219 -35.458 14.688 l -23.65 23.639 c -6.53 6.53 -6.53 17.114 0 23.644 l 47.289 47.283 c 3.265 3.265 7.543 4.898 11.819 4.898 c 4.276 0 8.555 -1.633 11.819 -4.898 l 23.639 -23.639 c 9.48 -9.474 14.693 -22.066 14.693 -35.463 S 495.642 35.306 486.163 25.838 z" style="stroke: none; stroke-width: 1; stroke-dasharray: none; stroke-linecap: butt; stroke-linejoin: miter; stroke-miterlimit: 10; fill: #736056; fill-rule: nonzero; opacity: 1;" transform=" matrix(1 0 0 1 0 0) " stroke-linecap="round" />
  <path d="M 415.243 96.758 l 23.643 23.64 c 3.265 3.265 7.543 4.898 11.819 4.898 c 4.276 0 8.555 -1.633 11.819 -4.898 l 23.639 -23.639 c 9.48 -9.474 14.693 -22.066 14.693 -35.463 s -5.213 -25.989 -14.693 -35.458 L 415.243 96.758 z" style="stroke: none; stroke-width: 1; stroke-dasharray: none; stroke-linecap: butt; stroke-linejoin: miter; stroke-miterlimit: 10; fill: #5a5f66; fill-rule: nonzero; opacity: 1;" transform=" matrix(1 0 0 1 0 0) " stroke-linecap="round" />
  <path d="M 461.85 217.158 c -13.397 0 -25.989 -5.213 -35.458 -14.688 L 309.536 85.614 c -9.48 -9.474 -14.693 -22.066 -14.693 -35.463 s 5.213 -25.989 14.693 -35.463 C 318.993 5.219 331.597 0 344.995 0 c 13.387 0 25.989 5.219 35.458 14.693 l 116.855 116.855 c 9.48 9.468 14.693 22.061 14.693 35.458 s -5.213 25.989 -14.693 35.463 v 0.006 C 487.829 211.944 475.237 217.158 461.85 217.158 z M 485.489 190.65 h 0.109 H 485.489 z" style="stroke: none; stroke-width: 1; stroke-dasharray: none; stroke-linecap: butt; stroke-linejoin: miter; stroke-miterlimit: 10; fill: #34a93d; fill-rule: nonzero; opacity: 1;" transform=" matrix(1 0 0 1 0 0) " stroke-linecap="round" />
  <path d="M 438.881 73.12 l -70.919 70.919 l 58.43 58.43 c 9.468 9.474 22.061 14.688 35.458 14.688 c 13.387 0 25.979 -5.213 35.458 -14.682 v -0.006 c 9.48 -9.474 14.693 -22.066 14.693 -35.463 s -5.213 -25.989 -14.693 -35.458 L 438.881 73.12 z" style="stroke: none; stroke-width: 1; stroke-dasharray: none; stroke-linecap: butt; stroke-linejoin: miter; stroke-miterlimit: 10; fill: #34a93d; fill-rule: nonzero; opacity: 1;" transform=" matrix(1 0 0 1 0 0) " stroke-linecap="round" />
  <polygon points="210.58,372.35 372.3,210.62 301.4,139.67 139.66,301.42 " style="stroke: none; stroke-width: 1; stroke-dasharray: none; stroke-linecap: butt; stroke-linejoin: miter; stroke-miterlimit: 10; fill: #736056; fill-rule: nonzero; opacity: 1;" transform="  matrix(1 0 0 1 0 0) "/>
  <polygon points="175.12,336.88 210.58,372.35 372.3,210.62 336.85,175.15 " style="stroke: none; stroke-width: 1; stroke-dasharray: none; stroke-linecap: butt; stroke-linejoin: miter; stroke-miterlimit: 10; fill: #5a5f66; fill-rule: nonzero; opacity: 1;" transform="  matrix(1 0 0 1 0 0) "/>
  <path d="M 438.211 288.058 c -12.853 0 -25.696 -4.887 -35.469 -14.66 L 238.609 109.253 c -9.48 -9.468 -14.693 -22.061 -14.693 -35.458 s 5.213 -25.989 14.693 -35.463 c 9.48 -9.474 22.072 -14.688 35.458 -14.688 c 13.397 0 25.989 5.213 35.458 14.688 L 473.669 202.47 c 9.48 9.468 14.693 22.061 14.693 35.458 c 0 13.403 -5.213 25.995 -14.693 35.469 C 463.896 283.171 451.054 288.058 438.211 288.058 z" style="stroke: none; stroke-width: 1; stroke-dasharray: none; stroke-linecap: butt; stroke-linejoin: miter; stroke-miterlimit: 10; fill: #46d139; fill-rule: nonzero; opacity: 1;" transform=" matrix(1 0 0 1 0 0) " stroke-linecap="round" />
  <path d="M 391.598 120.402 l -70.923 70.923 l 82.067 82.072 c 9.774 9.774 22.616 14.66 35.469 14.66 c 12.842 0 25.685 -4.887 35.458 -14.66 c 9.48 -9.474 14.693 -22.066 14.693 -35.469 c 0 -13.397 -5.213 -25.989 -14.693 -35.458 L 391.598 120.402 z" style="stroke: none; stroke-width: 1; stroke-dasharray: none; stroke-linecap: butt; stroke-linejoin: miter; stroke-miterlimit: 10; fill: #46d138; fill-rule: nonzero; opacity: 1;" transform=" matrix(1 0 0 1 0 0) " stroke-linecap="round" />
  <path d="M 237.934 488.356 c -13.397 0 -25.989 -5.213 -35.458 -14.688 L 38.333 309.53 c -9.48 -9.468 -14.693 -22.061 -14.693 -35.458 c 0 -13.403 5.213 -25.995 14.693 -35.469 c 19.558 -19.558 51.391 -19.535 70.928 0 l 164.133 164.144 c 9.48 9.468 14.693 22.061 14.693 35.458 c 0 13.397 -5.213 25.989 -14.693 35.463 v 0.006 C 263.913 483.143 251.321 488.356 237.934 488.356 z M 261.573 461.849 h 0.109 H 261.573 z" style="stroke: none; stroke-width: 1; stroke-dasharray: none; stroke-linecap: butt; stroke-linejoin: miter; stroke-miterlimit: 10; fill: #46d139; fill-rule: nonzero; opacity: 1;" transform=" matrix(1 0 0 1 0 0) " stroke-linecap="round" />
  <path d="M 191.326 320.675 l -70.923 70.923 l 82.074 82.07 c 9.468 9.474 22.061 14.688 35.458 14.688 c 13.387 0 25.979 -5.213 35.458 -14.682 v -0.006 c 9.48 -9.474 14.693 -22.066 14.693 -35.463 c 0 -13.397 -5.213 -25.989 -14.693 -35.458 L 191.326 320.675 z" style="stroke: none; stroke-width: 1; stroke-dasharray: none; stroke-linecap: butt; stroke-linejoin: miter; stroke-miterlimit: 10; fill: #46d138; fill-rule: nonzero; opacity: 1;" transform=" matrix(1 0 0 1 0 0) " stroke-linecap="round" />
</g>
</svg>